<?xml version="1.0" encoding="utf-8"?>
<!-- Generator: Adobe Illustrator 22.0.1, SVG Export Plug-In . SVG Version: 6.00 Build 0)  -->
<svg version="1.1" id="texto" xmlns="http://www.w3.org/2000/svg" xmlns:xlink="http://www.w3.org/1999/xlink" x="0px" y="0px"
	 viewBox="0 0 379.9 76.4" style="enable-background:new 0 0 379.9 76.4;" xml:space="preserve">
<style type="text/css">
	.st0{fill:#FFFFFF;}
</style>
<g>
	<path class="st0" d="M71.9,60.2h-5.6c-0.4,0-0.8,0.3-0.8,0.8v14.4c0,0.4,0.3,0.8,0.8,0.8h5.6c4.9,0,8.4-3.4,8.4-8
		C80.3,63.5,76.7,60.2,71.9,60.2z M71.9,71.8h-1.7v-7.1h1.7c2.1,0,3.6,1.4,3.6,3.6C75.4,70.4,74,71.8,71.9,71.8z M155,60.2h-3.2
		c-0.4,0-0.8,0.3-0.8,0.8v8.3c0,1.8-0.8,2.7-2.3,2.7c-1.5,0-2.3-0.9-2.3-2.8V61c0-0.4-0.3-0.8-0.8-0.8h-3.2c-0.4,0-0.8,0.3-0.8,0.8
		v8.2c0,4.6,2.6,7.2,7,7.2c4.5,0,7.1-2.7,7.1-7.3V61C155.8,60.6,155.4,60.2,155,60.2z M110.6,60.2h-3.1c-0.4,0-0.8,0.3-0.8,0.8v6.6
		l-5.3-7c-0.1-0.2-0.4-0.3-0.6-0.3h-2.9c-0.4,0-0.8,0.3-0.8,0.8v14.4c0,0.4,0.3,0.8,0.8,0.8h3.1c0.4,0,0.8-0.3,0.8-0.8v-6.8l5.6,7.3
		c0.1,0.2,0.4,0.3,0.6,0.3h2.7c0.4,0,0.8-0.3,0.8-0.8V61C111.3,60.6,111,60.2,110.6,60.2z M94.1,71.8h-7v-1.5h6
		c0.4,0,0.8-0.3,0.8-0.8v-2.8c0-0.4-0.3-0.8-0.8-0.8h-6v-1.4H94c0.4,0,0.8-0.3,0.8-0.8V61c0-0.4-0.3-0.8-0.8-0.8H83.1
		c-0.4,0-0.8,0.3-0.8,0.8v14.4c0,0.4,0.3,0.8,0.8,0.8h11c0.4,0,0.8-0.3,0.8-0.8v-2.8C94.9,72.1,94.5,71.8,94.1,71.8z M125.7,60.2
		h-11.9c-0.4,0-0.8,0.3-0.8,0.8v2.9c0,0.4,0.3,0.8,0.8,0.8h3.6v10.7c0,0.4,0.3,0.8,0.8,0.8h3.2c0.4,0,0.8-0.3,0.8-0.8V64.7h3.6
		c0.4,0,0.8-0.3,0.8-0.8V61C126.5,60.6,126.2,60.2,125.7,60.2z M135.1,66c-2.5-0.6-2.5-0.9-2.5-1.2c0-0.3,0.4-0.5,1.1-0.5
		c1,0,2.1,0.4,3.3,1.3c0.2,0.1,0.4,0.2,0.6,0.1c0.2,0,0.4-0.2,0.5-0.3l1.6-2.4c0.2-0.3,0.2-0.8-0.2-1.1c-1.7-1.3-3.6-2-5.8-2
		c-3.4,0-5.8,2.1-5.8,5.2c0,3.5,2.5,4.4,5.4,5.2c2.3,0.6,2.3,0.9,2.3,1.1c0,0.6-1.1,0.6-1.3,0.6c-1.3,0-2.5-0.5-3.8-1.6
		c-0.3-0.3-0.8-0.2-1.1,0.1l-1.9,2.2c-0.3,0.3-0.2,0.8,0.1,1.1c1.8,1.6,4.2,2.5,6.6,2.5c3.7,0,6.1-2.1,6.1-5.3
		C140.3,67.8,137.8,66.7,135.1,66z M51.8,60.6c-0.1-0.3-0.4-0.4-0.7-0.4h-0.4c-0.3,0-0.6,0.2-0.7,0.4L43,75.1
		c-0.1,0.2-0.1,0.5,0,0.8c0.1,0.2,0.4,0.4,0.7,0.4h0.5c0.3,0,0.6-0.2,0.7-0.4l1.8-3.9h8.2l1.8,3.9c0.1,0.3,0.4,0.4,0.7,0.4H58
		c0.3,0,0.5-0.1,0.7-0.4c0.1-0.2,0.2-0.5,0-0.8L51.8,60.6z M47.7,69.9l3.1-6.6l3.1,6.6H47.7z M289.4,74.2h-8.9v-5.1h7.9
		c0.4,0,0.8-0.3,0.8-0.8v-0.4c0-0.4-0.3-0.8-0.8-0.8h-7.9v-5h8.8c0.4,0,0.8-0.3,0.8-0.8V61c0-0.4-0.3-0.8-0.8-0.8h-10.1
		c-0.4,0-0.8,0.3-0.8,0.8v14.4c0,0.4,0.3,0.8,0.8,0.8h10.2c0.4,0,0.8-0.3,0.8-0.8V75C290.2,74.5,289.8,74.2,289.4,74.2z M304.6,60.2
		h-0.4c-0.4,0-0.8,0.3-0.8,0.8v11.4l-9.6-11.9c-0.1-0.2-0.4-0.3-0.6-0.3h-0.4c-0.4,0-0.8,0.3-0.8,0.8v14.4c0,0.4,0.3,0.8,0.8,0.8
		h0.4c0.4,0,0.8-0.3,0.8-0.8V63.9l9.6,11.9c0.1,0.2,0.4,0.3,0.6,0.3h0.4c0.4,0,0.8-0.3,0.8-0.8V61C305.4,60.6,305,60.2,304.6,60.2z
		 M275.3,67.4h-5.8c-0.4,0-0.8,0.3-0.8,0.8v0.5c0,0.4,0.3,0.8,0.8,0.8h4.5v3.5c-1,0.8-2.5,1.6-4.3,1.6c-4,0-5.9-3.2-5.9-6.3
		c0-3.1,2.2-6.2,5.9-6.2c1.9,0,3.1,0.6,4.2,1.6c0.3,0.3,0.8,0.2,1.1-0.1l0.3-0.3c0.3-0.3,0.2-0.8-0.1-1.1c-1.5-1.2-3-2-5.5-2
		c-5.1,0-7.9,4.2-7.9,8.2v0c0,4.8,3.2,8.2,7.9,8.2c2.2,0,4.4-0.9,6.1-2.4c0.2-0.1,0.3-0.4,0.3-0.6v-5.2
		C276,67.7,275.7,67.4,275.3,67.4z M321.1,72.3c-0.2-0.1-0.3-0.2-0.6-0.2c-0.2,0-0.4,0.1-0.5,0.2c-0.9,1-2.4,2.1-4.7,2.1
		c-3.3,0-5.8-2.7-5.8-6.3c0-3.5,2.6-6.2,5.8-6.2c2.3,0,3.6,0.9,4.6,2c0.3,0.3,0.8,0.3,1.1,0l0.3-0.3c0.1-0.1,0.2-0.3,0.2-0.6
		c0-0.2-0.1-0.4-0.2-0.6c-1.3-1.2-2.9-2.5-6-2.5c-4.4,0-7.9,3.6-7.9,8.2v0c0,4.6,3.4,8.2,7.8,8.2c2.4,0,4.5-0.9,6.2-2.7
		c0.1-0.2,0.2-0.4,0.2-0.6s-0.1-0.4-0.2-0.5L321.1,72.3z M175.1,67.9c1-0.8,1.5-1.9,1.5-3.3c0-1.2-0.4-2.2-1.2-2.9
		c-1-1-2.5-1.5-4.3-1.5h-5.9c-0.4,0-0.8,0.3-0.8,0.8v14.4c0,0.4,0.3,0.8,0.8,0.8h6.2c3.7,0,5.9-1.7,5.9-4.5
		C177.4,70.1,176.5,68.7,175.1,67.9z M166.5,62.2h4.7c2.2,0,3.5,0.9,3.5,2.5c0,2.3-2.4,2.5-3.1,2.5h-5V62.2z M171.5,74.2h-5v-5.1
		h5.4c1.6,0,3.6,0.7,3.6,2.6C175.4,73.9,172.9,74.2,171.5,74.2z M255,60.6c-0.1-0.3-0.4-0.4-0.7-0.4h-0.4c-0.3,0-0.6,0.2-0.7,0.4
		l-6.9,14.5c-0.1,0.2-0.1,0.5,0,0.8c0.1,0.2,0.4,0.4,0.7,0.4h0.5c0.3,0,0.6-0.2,0.7-0.4l1.8-3.9h8.2l1.8,3.9
		c0.1,0.3,0.4,0.4,0.7,0.4h0.5c0.3,0,0.5-0.1,0.7-0.4c0.1-0.2,0.2-0.5,0-0.8L255,60.6z M250.9,69.9l3.1-6.6l3.1,6.6H250.9z
		 M336.9,60.6c-0.1-0.3-0.4-0.4-0.7-0.4h-0.5c-0.3,0-0.5,0.1-0.6,0.3l-5.1,7.1l-5.2-7.1c-0.1-0.2-0.4-0.3-0.6-0.3h-0.5
		c-0.3,0-0.6,0.2-0.7,0.4c-0.1,0.3-0.1,0.6,0.1,0.8l5.9,8.2v5.8c0,0.4,0.3,0.8,0.8,0.8h0.5c0.4,0,0.8-0.3,0.8-0.8v-5.8l5.9-8.2
		C337,61.2,337,60.9,336.9,60.6z M187.9,69.7c2.5-0.6,4.1-2.3,4.1-4.7c0-1.3-0.4-2.4-1.3-3.2c-1.1-1.1-2.6-1.6-4.7-1.6h-5.9
		c-0.4,0-0.8,0.3-0.8,0.8v14.4c0,0.4,0.3,0.8,0.8,0.8h0.5c0.4,0,0.8-0.3,0.8-0.8v-5.5h4.2l4.5,6c0.1,0.2,0.4,0.3,0.6,0.3h0.6
		c0.3,0,0.6-0.2,0.7-0.4c0.1-0.3,0.1-0.6-0.1-0.8L187.9,69.7z M181.4,67.9v-5.7h4.6c1.2,0,4,0.3,4,2.9c0,1.8-1.6,2.8-4.2,2.8H181.4z
		 M201.5,60.6c-0.1-0.3-0.4-0.4-0.7-0.4h-0.4c-0.3,0-0.6,0.2-0.7,0.4l-6.9,14.5c-0.1,0.2-0.1,0.5,0,0.8c0.1,0.2,0.4,0.4,0.7,0.4h0.5
		c0.3,0,0.6-0.2,0.7-0.4l1.8-3.9h8.2l1.8,3.9c0.1,0.3,0.4,0.4,0.7,0.4h0.5c0.3,0,0.5-0.1,0.7-0.4c0.1-0.2,0.2-0.5,0-0.8L201.5,60.6z
		 M197.4,69.9l3.1-6.6l3.1,6.6H197.4z M231.3,60.2h-4.6c-0.4,0-0.8,0.3-0.8,0.8v14.4c0,0.4,0.3,0.8,0.8,0.8h4.6c4.9,0,8.4-3.3,8.4-8
		C239.7,63.6,236.2,60.2,231.3,60.2z M231.3,74.2h-3.4v-12h3.4c3.7,0,6.4,2.5,6.4,6.1C237.7,71.7,235,74.2,231.3,74.2z M222.4,60.2
		h-0.4c-0.4,0-0.8,0.3-0.8,0.8v11.4l-9.6-11.9c-0.1-0.2-0.4-0.3-0.6-0.3h-0.4c-0.4,0-0.8,0.3-0.8,0.8v14.4c0,0.4,0.3,0.8,0.8,0.8
		h0.4c0.4,0,0.8-0.3,0.8-0.8V63.9l9.6,11.9c0.1,0.2,0.4,0.3,0.6,0.3h0.4c0.4,0,0.8-0.3,0.8-0.8V61C223.2,60.6,222.8,60.2,222.4,60.2
		z"/>
	<path class="st0" d="M90.7,21.7c2.3,0,4.2-1.9,4.2-4.2s-1.9-4.2-4.2-4.2h-4.3V9c0-2.7-2.2-4.9-4.9-4.9S76.5,6.3,76.5,9v4.3h-0.3
		c-2.3,0-4.2,1.9-4.2,4.2s1.9,4.2,4.2,4.2h0.3v16.4c0,8,4.1,10.4,10.1,10.4c2.1,0,3.8-0.3,5.6-1c1.4-0.5,2.5-1.9,2.5-3.7
		c0-2.3-1.9-4.1-4.1-4.1c-0.2,0-0.8,0.1-1.2,0.1c-2.2,0-3.2-1.1-3.2-3.4V21.7H90.7z M107.1,0.4c-3.1,0-5.5,1.7-5.5,4.6v0.1
		c0,2.8,2.4,4.7,5.5,4.7c3.1,0,5.5-1.8,5.5-4.7V5C112.6,2.2,110.2,0.4,107.1,0.4z M107.1,12.9c-2.7,0-4.9,2.2-4.9,4.9v25.6
		c0,2.7,2.2,4.9,4.9,4.9c2.7,0,4.9-2.2,4.9-4.9V17.9C112,15.1,109.8,12.9,107.1,12.9z M51.2,12.9c-4.6,0-8,0.6-11.1,1.8
		c-1.6,0.6-2.7,2.1-2.7,3.8c0,2.3,1.8,4,4.1,4c0.5,0,0.8-0.1,1.4-0.3c1.9-0.6,4.1-1,6.8-1c4.9,0,7.4,2.3,7.4,6.3v0.6
		c-2.5-0.8-5-1.4-8.5-1.4c-8.2,0-14,3.5-14,11.1v0.1c0,6.9,5.4,10.6,11.9,10.6c4.8,0,8.1-1.7,10.5-4.4v0.1c0,2.1,1.9,4.1,4.7,4.1
		c2.7,0,4.8-2.1,4.8-4.7V27.9c0-4.7-1.2-8.5-3.8-11.1C60.5,14.4,56.6,12.9,51.2,12.9z M57.4,35.8c0,3.6-3.1,6.1-7.7,6.1
		c-3.2,0-5.4-1.6-5.4-4.2v-0.1c0-3.1,2.6-4.8,6.8-4.8c2.4,0,4.6,0.5,6.3,1.3V35.8z M290.4,12.3c-5,0-7.9,2.7-10.2,5.6v-0.4
		c0-2.7-2.2-4.9-4.9-4.9c-2.7,0-4.9,2.2-4.9,4.9v25.6c0,2.7,2.2,4.9,4.9,4.9c2.7,0,4.9-2.2,4.9-4.9V28.3c0-4.7,2.4-7.1,6.2-7.1
		c3.8,0,6,2.4,6,7.1v14.8c0,2.7,2.2,4.9,4.9,4.9c2.7,0,4.9-2.2,4.9-4.9V25.2C302.2,17.2,297.9,12.3,290.4,12.3z M25,38.9H13.6
		c-2.5,0-4.6-2.1-4.6-4.6V4.6C9,2.2,7.2,0.2,4.8,0C3.5-0.1,2.3,0.4,1.4,1.2C0.5,2.1,0,3.3,0,4.5v30.5c0,7.1,5.8,12.8,12.8,12.8H25
		c2.5,0,4.5-2,4.5-4.5S27.5,38.9,25,38.9z M223.1,12.6c-2.9,0-5.2,3.1-6.7,6.5v-1.6c0-2.7-2.2-4.9-4.9-4.9c-2.7,0-4.9,2.2-4.9,4.9
		v25.6c0,2.7,2.2,4.9,4.9,4.9c2.7,0,4.9-2.2,4.9-4.9v-9.2c0-7,2.8-10.8,7.8-12c2-0.5,3.7-2,3.7-4.6
		C227.9,14.6,226.2,12.6,223.1,12.6z M246.4,12.6c-4.6,0-8,0.6-11.1,1.8c-1.6,0.6-2.7,2.1-2.7,3.8c0,2.3,1.8,4,4.1,4
		c0.5,0,0.8-0.1,1.4-0.3c1.9-0.6,4.1-1,6.8-1c4.9,0,7.4,2.3,7.4,6.3v0.6c-2.5-0.8-5-1.4-8.5-1.4c-8.2,0-14,3.5-14,11.1v0.1
		c0,6.9,5.4,10.6,11.9,10.6c4.8,0,8.1-1.7,10.5-4.4V44c0,2.1,1.9,4.1,4.7,4.1c2.7,0,4.8-2.1,4.8-4.7V27.5c0-4.7-1.2-8.5-3.8-11.1
		C255.7,14,251.8,12.6,246.4,12.6z M252.6,35.4c0,3.6-3.1,6.1-7.7,6.1c-3.2,0-5.4-1.6-5.4-4.2v-0.1c0-3.1,2.6-4.8,6.8-4.8
		c2.4,0,4.6,0.5,6.3,1.3V35.4z M195.3,21.4c1.4-2.2,2.2-4.8,2.2-7.5c-0.1-7.2-6-13-13.4-13.2l-16.5-0.2c-2.3,0-4.2,1.6-4.6,3.7l0,0
		c0,0.1-0.1,0.3-0.1,0.4c0,0.1,0,0.2,0,0.3c0,0.1,0,0.1,0,0.2v30.5c0,7.1,5.8,12.8,12.8,12.8h2.9l7.7,0.1c0.1,0,0.2,0,0.4,0
		c3.3,0,6.6-1.1,9.2-3.2c3.6-2.8,5.7-7,5.8-11.6C201.7,29,199.3,24.3,195.3,21.4z M171.9,9.6l12.1,0.1c2.4,0.1,4.4,2,4.4,4.3
		c0,2.2-1.6,4.1-3.8,4.4c0,0,0,0,0,0c-0.2,0-0.4,0-0.6,0l-12.1-0.2V9.6z M190.2,38.4c-0.8,0.6-1.6,1-2.6,1.1h-9l-0.3,0c0,0,0,0,0,0
		h-1.9c-2.5,0-4.6-2.1-4.6-4.6v-7.6l14.6,0.2c3.3,0.1,5.9,2.6,6.1,5.8C192.6,35.3,191.8,37.2,190.2,38.4z M141.3,12.7
		c-5,0-7.9,2.7-10.2,5.6v-0.4c0-2.7-2.2-4.9-4.9-4.9c-2.7,0-4.9,2.2-4.9,4.9v25.6c0,2.7,2.2,4.9,4.9,4.9c2.7,0,4.9-2.2,4.9-4.9V28.7
		c0-4.7,2.4-7.1,6.2-7.1c3.8,0,6,2.4,6,7.1v14.8c0,2.7,2.2,4.9,4.9,4.9c2.7,0,4.9-2.2,4.9-4.9V25.6
		C153.1,17.6,148.7,12.7,141.3,12.7z M369.4,26.7c-3.8-1.3-7.1-2.2-7.1-4.1v-0.1c0-1.4,1.2-2.4,3.6-2.4c2.1,0,4.7,0.8,7.5,2.2
		c0.6,0.3,1.1,0.5,1.8,0.5c2.2,0,4-1.7,4-3.9c0-1.7-0.9-3-2.3-3.7c-3.4-1.7-7.1-2.7-10.7-2.7c-7,0-12.7,3.9-12.7,11v0.1
		c0,6.7,5.5,9,10.4,10.4c3.8,1.2,7.2,1.9,7.2,4v0.1c0,1.6-1.3,2.6-4.1,2.6c-2.8,0-6.1-1-9.4-3.1c-0.5-0.3-1.2-0.5-1.9-0.5
		c-2.2,0-3.9,1.7-3.9,3.9c0,1.6,0.8,2.7,1.9,3.4c4.2,2.7,8.8,3.9,13.1,3.9c7.5,0,13.3-3.5,13.3-11.2V37
		C379.9,30.6,374.3,28.3,369.4,26.7z M340.7,0c-2.7,0-4.9,2.2-4.9,4.9v12.6c-2.3-2.8-5.6-5.2-10.8-5.2c-8.2,0-15.8,6.3-15.8,17.9
		v0.1c0,11.6,7.7,17.9,15.8,17.9c5.1,0,8.4-2.4,10.8-5.6v0.5c0,2.7,2.2,4.9,4.9,4.9c2.7,0,4.9-2.2,4.9-4.9V4.9
		C345.6,2.2,343.4,0,340.7,0z M335.9,30.4c0,5.8-3.8,9.6-8.4,9.6c-4.6,0-8.5-3.8-8.5-9.6v-0.1c0-5.8,3.9-9.6,8.5-9.6
		c4.6,0,8.4,3.8,8.4,9.6V30.4z"/>
</g>
</svg>
